<svg width="164" height="58" viewBox="0 0 164 58" fill="none" xmlns="http://www.w3.org/2000/svg">
<path d="M77.0912 34.4926V40.1617L76.73 40.5236H74.8073L74.4472 40.1607V34.7431C74.4472 31.8861 73.1766 31.8861 72.6995 31.8861C71.5571 31.8861 70.3017 33.3866 70.3007 34.7482V40.1658L69.9406 40.5277H68.0179L67.6578 40.1648V34.7676L67.6364 34.5417C67.6145 34.2061 67.5676 33.8726 67.496 33.5441C67.4354 33.2071 67.3185 32.8829 67.1501 32.5852C67.0294 32.3689 66.8498 32.1916 66.6323 32.0741C66.5176 32.0084 66.3939 31.9602 66.2651 31.931C66.1248 31.8952 65.9805 31.8784 65.8358 31.881C65.2539 31.8585 64.5408 32.1805 64.0046 32.6844C63.8171 32.8577 63.6517 33.0538 63.5123 33.2681V34.7482V40.1597L63.1521 40.5225H61.2294L60.8693 40.1597V29.9562L61.2294 29.5933H63.1521L63.5123 29.9562V30.3262C63.6374 30.2042 63.7706 30.0908 63.911 29.9868C64.44 29.6158 64.9375 29.305 65.7096 29.2437C65.8734 29.2256 66.0384 29.2208 66.203 29.2294H66.2346C66.4149 29.2377 66.5945 29.2565 66.7727 29.2856C67.7833 29.4417 68.6926 29.9896 69.3058 30.8117C70.2661 29.811 71.5072 29.2253 72.7036 29.2253C73.7025 29.2253 76.9762 29.6045 77.0901 34.4855L77.0912 34.4926Z" fill="#BCBCBC"/>
<path d="M93.6732 35.2634V36.2294L93.3131 36.5923H85.7973C86.3212 37.5419 87.3853 38.1705 88.544 38.1705C89.032 38.1736 89.5141 38.0635 89.9528 37.8486C90.3915 37.6337 90.7748 37.3199 91.073 36.9316L91.5816 36.8601L93.1177 38.0223L93.1889 38.5334C92.6432 39.2498 91.9399 39.8297 91.1341 40.2278C90.3283 40.6259 89.4419 40.8314 88.544 40.8282C85.3822 40.8282 82.8094 38.332 82.8094 35.2644C82.8094 31.974 85.251 29.2979 88.2428 29.2979C91.2347 29.2979 93.6732 31.974 93.6732 35.2634ZM90.7942 33.9346C90.3537 32.7478 89.3537 31.9536 88.2398 31.9536C87.1258 31.9536 86.1248 32.7478 85.6854 33.9346H90.7942Z" fill="#BCBCBC"/>
<path d="M102.297 23.1515V40.172L101.937 40.5349H100.014L99.6537 40.172V23.1515L100.014 22.7896H101.937L102.297 23.1515Z" fill="#BCBCBC"/>
<path d="M120.251 35.063C120.251 36.2004 119.915 37.3122 119.287 38.2579C118.658 39.2036 117.764 39.9407 116.718 40.376C115.672 40.8113 114.522 40.9253 113.412 40.7035C112.301 40.4817 111.282 39.934 110.481 39.1299C109.681 38.3257 109.135 37.3011 108.915 36.1856C108.694 35.0701 108.807 33.9138 109.24 32.863C109.673 31.8122 110.406 30.9139 111.347 30.2819C112.288 29.6499 113.395 29.3124 114.527 29.3122C116.044 29.3138 117.499 29.9202 118.572 30.9983C119.645 32.0764 120.249 33.5382 120.251 35.063V35.063ZM117.606 35.063C117.606 34.4511 117.426 33.8528 117.087 33.344C116.749 32.8352 116.268 32.4386 115.705 32.2044C115.142 31.9702 114.523 31.9089 113.926 32.0283C113.329 32.1477 112.78 32.4424 112.349 32.8751C111.919 33.3079 111.625 33.8592 111.507 34.4594C111.388 35.0596 111.449 35.6817 111.682 36.2471C111.915 36.8125 112.31 37.2958 112.816 37.6358C113.322 37.9757 113.918 38.1572 114.527 38.1572C115.343 38.1564 116.126 37.8302 116.704 37.2501C117.281 36.6701 117.606 35.8835 117.607 35.063H117.606Z" fill="#BCBCBC"/>
<path d="M136.56 23.1515V40.1199L136.2 40.4827H134.278L133.917 40.1199V39.896C133.142 40.3846 132.204 40.8282 131.185 40.8282C129.663 40.8282 128.204 40.2208 127.128 39.1397C126.052 38.0585 125.447 36.5921 125.447 35.0631C125.447 33.5341 126.052 32.0677 127.128 30.9865C128.204 29.9053 129.663 29.2979 131.185 29.2979C132.165 29.2979 133.072 29.7354 133.917 30.2823V23.1515L134.278 22.7896H136.2L136.56 23.1515ZM134.274 35.059C134.27 34.2356 133.943 33.447 133.364 32.8648C132.784 32.2826 131.999 31.954 131.18 31.9505C130.628 31.9496 130.086 32.0971 129.61 32.3776C129.134 32.6582 128.741 33.0616 128.473 33.546C128.204 34.0304 128.069 34.5782 128.082 35.1326C128.095 35.687 128.256 36.2277 128.547 36.6988C128.838 37.1699 129.249 37.5542 129.738 37.8118C130.227 38.0694 130.775 38.1909 131.326 38.1637C131.878 38.1366 132.412 37.9618 132.873 37.6574C133.334 37.3531 133.706 36.9303 133.95 36.4328C134.163 36.0064 134.273 35.536 134.274 35.059V35.059Z" fill="#BCBCBC"/>
<path d="M154.184 23.1515V40.1199L153.824 40.4827H151.901L151.541 40.1199V39.896C150.766 40.3846 149.828 40.8282 148.809 40.8282C147.287 40.8282 145.828 40.2208 144.752 39.1397C143.676 38.0585 143.071 36.5921 143.071 35.0631C143.071 33.5341 143.676 32.0677 144.752 30.9865C145.828 29.9053 147.287 29.2979 148.809 29.2979C149.788 29.2979 150.696 29.7354 151.541 30.2823V23.1515L151.901 22.7896H153.824L154.184 23.1515ZM151.9 35.059C151.897 34.2356 151.57 33.447 150.99 32.8648C150.411 32.2826 149.626 31.954 148.807 31.9505C148.255 31.9496 147.713 32.0971 147.237 32.3776C146.761 32.6582 146.368 33.0616 146.099 33.546C145.831 34.0304 145.696 34.5782 145.709 35.1326C145.722 35.687 145.882 36.2277 146.174 36.6988C146.465 37.1699 146.876 37.5542 147.365 37.8118C147.853 38.0694 148.402 38.1909 148.953 38.1637C149.504 38.1366 150.038 37.9618 150.5 37.6574C150.961 37.3531 151.333 36.9303 151.577 36.4328C151.789 36.0064 151.9 35.536 151.9 35.059V35.059Z" fill="#BCBCBC"/>
<path d="M163.86 29.9562V40.1597L163.499 40.5215H161.577L161.217 40.1597V29.9562L161.577 29.5943H163.499L163.86 29.9562ZM161.215 26.4807C161.215 26.2179 161.292 25.961 161.438 25.7425C161.583 25.5239 161.789 25.3536 162.031 25.253C162.273 25.1525 162.539 25.1261 162.795 25.1774C163.052 25.2287 163.287 25.3553 163.472 25.5411C163.657 25.7269 163.783 25.9637 163.834 26.2215C163.885 26.4793 163.859 26.7464 163.759 26.9893C163.659 27.2321 163.489 27.4396 163.272 27.5856C163.054 27.7316 162.799 27.8096 162.537 27.8096C162.188 27.8085 161.853 27.6686 161.606 27.4204C161.359 27.1722 161.22 26.8358 161.219 26.4848L161.215 26.4807Z" fill="#BCBCBC"/>
<path d="M25.8152 29.4277C23.1143 28.61 21.6351 28.6018 20.2841 28.565C15.7317 28.4403 11.1457 29.2805 7.13453 31.516C5.56967 32.3723 4.13664 33.4521 2.88018 34.7216C1.3695 36.2764 0.0531128 38.3392 0.160946 40.6135C0.262676 42.7192 1.55363 44.5142 3.14367 45.7899C5.1864 47.4254 7.72151 48.4251 10.2159 49.1182C15.397 50.5554 20.6219 50.399 25.8416 49.3318C30.0491 48.4801 33.8665 46.2761 36.7176 43.0525C36.9536 42.7877 37.3534 42.4228 37.4297 42.0558C37.0706 42.2194 36.4938 42.4913 36.3615 42.5455C34.3412 43.3734 32.2811 44.1748 30.2069 44.8444C27.7653 45.6294 25.16 46.2325 22.5771 46.1027C18.9775 45.9129 15.4298 45.1568 12.0633 43.8621C9.63912 42.9114 7.04501 41.5632 7.09791 38.5753C7.14267 36.0311 9.25051 33.9253 11.2566 32.6466C13.8772 30.9774 16.5537 29.9807 19.6056 29.58C21.2689 29.3592 23.9688 29.304 25.8152 29.4277Z" fill="#F19581"/>
<path d="M18.097 50.3182C15.4208 50.3296 12.7556 49.9757 10.1742 49.2664C7.14878 48.4272 4.81714 47.3242 3.04704 45.9095C1.17622 44.4089 0.0968667 42.5312 0.00632712 40.6197C-0.11168 38.1276 1.44377 35.9779 2.76931 34.6123C4.03518 33.3319 5.48001 32.2438 7.05824 31.3821C10.8446 29.2744 15.2984 28.2757 20.2831 28.4117H20.454C21.7633 28.4464 23.2475 28.4853 25.8539 29.2764C25.8739 29.2801 25.893 29.2876 25.9102 29.2987C25.9273 29.3097 25.9421 29.3241 25.9537 29.3409C25.9653 29.3577 25.9735 29.3766 25.9779 29.3966C25.9822 29.4166 25.9826 29.4372 25.979 29.4574C25.9754 29.4775 25.9679 29.4967 25.9569 29.5139C25.9459 29.5312 25.9316 29.546 25.9149 29.5577C25.8982 29.5694 25.8793 29.5776 25.8594 29.582C25.8395 29.5863 25.819 29.5867 25.7989 29.5831C23.8732 29.4574 21.2211 29.5218 19.6199 29.7323C16.6107 30.13 13.9759 31.097 11.339 32.7795C10.1274 33.5512 7.30341 35.6621 7.25153 38.5804C7.20168 41.4006 9.56182 42.7172 12.1193 43.72C15.4702 45.0093 19.002 45.7616 22.5853 45.9494C24.7572 46.0587 27.1631 45.6611 30.1591 44.6982C32.4195 43.9694 34.6291 43.0893 36.3025 42.4034C36.3788 42.3717 36.6189 42.2613 36.8722 42.1438L37.3656 41.9168C37.3915 41.9051 37.4201 41.9007 37.4483 41.9043C37.4765 41.9079 37.5032 41.9193 37.5253 41.9372C37.5475 41.9551 37.5642 41.9788 37.5737 42.0057C37.5833 42.0326 37.5852 42.0617 37.5793 42.0896C37.508 42.433 37.209 42.753 36.9689 43.0096C36.92 43.0617 36.8732 43.1118 36.8326 43.1578C33.9593 46.4061 30.1122 48.627 25.8722 49.4851C23.3148 50.0242 20.7099 50.3033 18.097 50.3182V50.3182ZM19.394 28.7081C14.8162 28.7081 10.7215 29.6966 7.2088 31.652C5.65601 32.4993 4.23447 33.5695 2.98905 34.829C1.70725 36.1527 0.201649 38.2247 0.313552 40.6054C0.399005 42.4259 1.43868 44.2239 3.23829 45.6683C4.97482 47.0615 7.27086 48.1409 10.2576 48.9689C14.9942 50.2824 20.0827 50.3519 25.8122 49.1795C29.9879 48.3332 33.7761 46.1446 36.6047 42.9441C36.6474 42.8961 36.6962 42.8419 36.7461 42.7908C36.8757 42.6584 36.9966 42.5177 37.1082 42.3697L37.0065 42.4187C36.739 42.5434 36.507 42.6497 36.4236 42.6845C34.7451 43.3724 32.5273 44.2556 30.2577 44.9875C27.2262 45.9616 24.7847 46.3634 22.5751 46.253C18.9588 46.0638 15.3944 45.3049 12.0125 44.0041C10.865 43.5544 9.55571 42.9758 8.55367 42.0978C7.44787 41.1277 6.926 39.9737 6.94736 38.5712C7.00229 35.5046 9.92398 33.3141 11.1773 32.5147C13.8548 30.8097 16.5273 29.8274 19.5893 29.4236C20.8508 29.257 22.7643 29.1814 24.4724 29.2192C22.6809 28.7848 21.512 28.7541 20.4581 28.7265H20.2872C19.9854 28.7142 19.6877 28.7081 19.394 28.7081V28.7081Z" fill="#F19581"/>
<path d="M45.8387 38.6213C45.8387 38.6213 50.8642 31.4077 50.6587 22.1333C50.5234 15.993 49.5641 9.22717 45.4532 4.39733C41.2609 -0.528605 34.1764 -1.16032 28.9017 2.45517C28.8142 2.51514 28.7278 2.57647 28.6423 2.63916C23.8732 6.13403 22.213 13.9139 23.6352 19.4184C23.6738 19.5697 23.7155 19.7251 23.7603 19.8712C25.8112 26.7945 38.3524 40.0666 40.8143 41.7154C40.8967 41.7706 40.9618 41.8176 41.032 41.7849C41.2009 41.695 38.2965 38.1357 38.0645 37.8424C34.797 33.6994 31.8804 29.0996 29.8631 24.2084C29.1356 22.4367 28.6232 20.5834 28.3371 18.6886C27.6678 14.2277 29.4969 8.68337 33.6424 6.47135C34.0263 6.26629 34.4325 6.10646 34.8529 5.99501C39.4705 4.76021 43.3982 8.47791 45.1978 12.3602C47.4522 17.2268 47.9446 22.8479 47.5824 28.1448C47.4526 29.9912 47.2274 31.8295 46.9079 33.6524C46.676 34.9802 46.4023 37.1503 45.8387 38.6213Z" fill="#E9706B"/>
<path d="M40.9841 41.9495C40.8974 41.9418 40.8149 41.9084 40.7471 41.8534L40.7288 41.8412C39.4521 40.9866 35.6423 37.1769 32.0156 32.8684C25.8905 25.6016 24.1224 21.6315 23.6127 19.9121C23.569 19.766 23.5263 19.6116 23.4856 19.4542C22.7663 16.6698 22.8325 13.3088 23.6677 10.232C24.5731 6.89762 26.3076 4.15611 28.5507 2.51141C28.6382 2.44803 28.726 2.38602 28.8142 2.32537C31.3831 0.548128 34.498 -0.25165 37.6006 0.0693974C40.6978 0.402355 43.5503 1.91537 45.5711 4.29717C50.033 9.53998 50.7003 16.9856 50.8133 22.1303C50.915 26.9479 49.5925 31.1981 48.4735 33.9151C47.2344 36.8968 45.9821 38.6939 45.9699 38.7112C45.9483 38.742 45.9161 38.7638 45.8796 38.7724C45.8431 38.781 45.8047 38.7759 45.7717 38.7581C45.7387 38.7402 45.7133 38.7108 45.7003 38.6755C45.6873 38.6401 45.6877 38.6012 45.7013 38.5661C46.1551 37.3814 46.4135 35.751 46.6261 34.4405C46.6729 34.1472 46.7166 33.8732 46.7593 33.6279C47.0774 31.8103 47.3018 29.9775 47.4318 28.1367C47.8478 22.0035 47.0503 16.7219 45.0615 12.4277C44.0981 10.3485 42.6545 8.55766 40.9923 7.38725C39.0594 6.02467 36.9526 5.59535 34.8885 6.14631C34.4796 6.25517 34.0846 6.41125 33.7115 6.61141C29.4815 8.86943 27.862 14.5088 28.4866 18.6732C28.7704 20.5558 29.28 22.3969 30.0044 24.1563C31.8406 28.6232 34.5924 33.1975 38.1835 37.7514L38.387 38.0069C41.2354 41.5458 41.211 41.6868 41.1855 41.8115C41.1807 41.836 41.1706 41.859 41.1558 41.879C41.141 41.8989 41.122 41.9154 41.1001 41.927C41.0638 41.9436 41.024 41.9514 40.9841 41.9495V41.9495ZM36.2394 0.304501C33.6497 0.314699 31.123 1.10791 28.9881 2.58092C28.902 2.64021 28.8166 2.70051 28.7318 2.76184C26.5446 4.36464 24.8518 7.04686 23.9647 10.3138C23.1427 13.3405 23.0766 16.6432 23.7826 19.3775C23.8223 19.5319 23.864 19.6842 23.9067 19.8253C25.0776 23.777 29.6362 29.5688 32.2486 32.6691C35.6514 36.7057 39.1967 40.2956 40.6505 41.4057C40.329 40.9478 39.6179 40.0155 38.1489 38.193L37.9455 37.9354C34.3371 33.359 31.57 28.7602 29.7226 24.2667C28.9886 22.4843 28.4721 20.6192 28.1845 18.7121C27.8489 16.333 28.1443 13.907 29.041 11.6794C30.0197 9.24151 31.5843 7.39339 33.569 6.33542C33.9632 6.12454 34.3804 5.96024 34.8122 5.84579C36.9648 5.2703 39.1632 5.71495 41.1703 7.13273C42.8712 8.33482 44.3514 10.1676 45.3412 12.2958C47.3433 16.6391 48.1571 21.9749 47.7329 28.1571C47.6023 30.0075 47.3769 31.8499 47.0574 33.6769C47.0157 33.9212 46.9719 34.1942 46.9252 34.4855C46.7756 35.4208 46.5996 36.5186 46.3453 37.5102C47.682 35.2092 50.6637 29.2529 50.506 22.1334C50.3931 17.0357 49.7349 9.66265 45.3372 4.49446C43.3667 2.1736 40.586 0.699738 37.567 0.376054C37.1261 0.32821 36.6829 0.304325 36.2394 0.304501V0.304501Z" fill="#E96F6B"/>
<path d="M32.0624 57.8445C32.0624 57.8445 32.0411 57.5798 32.0411 57.5379C32.0508 57.1899 32.0885 56.8433 32.154 56.5014C32.4928 54.3824 33.3219 52.106 34.6454 50.4081C35.9689 48.7103 37.6535 47.3497 39.4846 46.259C43.2588 44.0102 47.385 42.754 51.8062 42.9134C52.5956 42.942 53.7777 42.9931 54.1083 43.8906C54.5213 45.0099 53.1643 45.8716 52.3321 46.2672C51.266 46.7783 50.1103 46.9194 48.9679 47.1484C44.1968 48.1051 39.4145 50.0401 35.743 53.3152C35.545 53.4924 35.35 53.6733 35.1581 53.858C34.5702 54.4265 34.021 55.034 33.5141 55.6765C33.0526 56.2601 32.6315 56.8749 32.2537 57.5164C32.1886 57.6227 32.1248 57.7321 32.0624 57.8445Z" fill="#FBCFCE"/>
<path d="M32.0614 58C32.0412 58 32.0211 57.996 32.0024 57.9882C31.9837 57.9803 31.9667 57.9689 31.9524 57.9544C31.9382 57.94 31.9269 57.9228 31.9192 57.904C31.9115 57.8852 31.9077 57.865 31.9078 57.8446C31.9078 57.8293 31.9078 57.7894 31.9007 57.7424C31.8905 57.6187 31.8875 57.5635 31.8864 57.538C31.8929 57.2001 31.9269 56.8634 31.9882 56.5311L31.9973 56.4759C32.3727 54.132 33.2913 51.8853 34.5202 50.3121C35.7491 48.739 37.4002 47.3181 39.4033 46.1211C43.4094 43.7343 47.5844 42.6017 51.8082 42.7541C52.5824 42.7817 53.8794 42.8287 54.2497 43.8314C54.7279 45.1276 53.1124 46.0608 52.3952 46.4012C51.5101 46.8224 50.5559 47.0002 49.6332 47.172C49.4206 47.2118 49.208 47.2517 48.9954 47.2936C43.6952 48.3556 39.1479 50.4757 35.8427 53.4267C35.6454 53.6025 35.45 53.7835 35.2629 53.9654C34.6811 54.5274 34.1373 55.1277 33.6352 55.7624C33.1789 56.3417 32.7625 56.9517 32.389 57.5881C32.3252 57.6971 32.2625 57.8068 32.2008 57.9172C32.1875 57.9427 32.1675 57.9639 32.1428 57.9785C32.1182 57.9932 32.09 58.0006 32.0614 58V58ZM51.0585 43.0566C47.1459 43.0566 43.2822 44.181 39.563 46.3941C37.5945 47.5675 35.9801 48.9495 34.7664 50.5053C33.5691 52.0386 32.6728 54.2332 32.3056 56.527L32.2964 56.5822C32.2588 56.8173 32.2201 57.0575 32.2028 57.2978C32.5633 56.6986 32.9611 56.1229 33.3941 55.5743C33.9057 54.9287 34.4597 54.3181 35.0523 53.7467C35.2425 53.5627 35.4409 53.3787 35.6413 53.1998C38.9862 50.215 43.5844 48.0705 48.9374 46.9972C49.151 46.9542 49.3657 46.9144 49.5793 46.8745C50.5244 46.6987 51.4165 46.5321 52.266 46.1283C52.9059 45.8216 54.3535 45.0039 53.9639 43.9449C53.6648 43.1364 52.5396 43.0955 51.8001 43.0689C51.5525 43.0607 51.3053 43.0566 51.0585 43.0566Z" fill="#FBCFCE"/>
</svg>
